<?xml version="1.0" encoding="UTF-8"?>
<svg width="28px" height="28px" viewBox="0 0 28 28" version="1.1" xmlns="http://www.w3.org/2000/svg" xmlns:xlink="http://www.w3.org/1999/xlink">
    <!-- Generator: Sketch 52.6 (67491) - http://www.bohemiancoding.com/sketch -->
    <title>sweden</title>
    <desc>Created with Sketch.</desc>
    <g id="Symbols" stroke="none" stroke-width="1" fill="none" fill-rule="evenodd">
        <g id="flag/sw">
            <g id="sweden">
                <circle id="Oval" fill="#FFDA44" cx="14" cy="14" r="14"></circle>
                <g id="Group" transform="translate(0.109375, 0.000000)" fill="#0052B4">
                    <path d="M10.8471562,12.1739297 L27.7721172,12.1739297 C26.8772656,5.30479687 21.0036641,0 13.890625,0 C12.8453281,0 11.8271016,0.115554687 10.8471562,0.332773437 L10.8471562,12.1739297 Z" id="Path"></path>
                    <path d="M7.19496094,12.1739297 L7.19496094,1.70225781 C3.35075781,3.79974219 0.598828125,7.6470625 0.0091328125,12.1739297 L7.19496094,12.1739297 Z" id="Path"></path>
                    <path d="M7.19496094,15.8260703 L0.0091328125,15.8260703 C0.598828125,20.3529375 3.35075781,24.2002578 7.19496094,26.2976875 L7.19496094,15.8260703 Z" id="Path"></path>
                    <path d="M10.8471562,15.8260703 L10.8471562,27.6672266 C11.8271016,27.8844453 12.8453281,28 13.890625,28 C21.0036641,28 26.8772656,22.6952031 27.7721172,15.8260703 L10.8471562,15.8260703 Z" id="Path"></path>
                </g>
            </g>
        </g>
    </g>
</svg>