<?xml version="1.0" encoding="UTF-8"?>
<svg width="28px" height="28px" viewBox="0 0 28 28" version="1.1" xmlns="http://www.w3.org/2000/svg" xmlns:xlink="http://www.w3.org/1999/xlink">
    <!-- Generator: Sketch 52.6 (67491) - http://www.bohemiancoding.com/sketch -->
    <title>flag/uk</title>
    <desc>Created with Sketch.</desc>
    <g id="flag/uk" stroke="none" stroke-width="1" fill="none" fill-rule="evenodd">
        <g id="uk">
            <circle id="Oval" fill="#F0F0F0" cx="14" cy="14" r="14"></circle>
            <g id="Group" transform="translate(0.437500, 0.437500)" fill="#0052B4">
                <path d="M2.4565625,5.03901562 C1.35685156,6.46980469 0.527625,8.11890625 0.0447890625,9.91041406 L7.32796094,9.91041406 L2.4565625,5.03901562 Z" id="Path"></path>
                <path d="M27.0802109,9.91041406 C26.597375,8.11896094 25.7680937,6.46985937 24.6684375,5.03907031 L19.7971484,9.91041406 L27.0802109,9.91041406 Z" id="Path"></path>
                <path d="M0.0447890625,17.21475 C0.527679687,19.0062031 1.35690625,20.6553047 2.4565625,22.0860391 L7.32779687,17.21475 L0.0447890625,17.21475 Z" id="Path"></path>
                <path d="M22.0859844,2.45661719 C20.6551953,1.35690625 19.0061484,0.527679688 17.2146406,0.0447890625 L17.2146406,7.32790625 L22.0859844,2.45661719 Z" id="Path"></path>
                <path d="M5.03901562,24.6683828 C6.46980469,25.7680937 8.11890625,26.5973203 9.91035937,27.0802109 L9.91035937,19.7971484 L5.03901562,24.6683828 Z" id="Path"></path>
                <path d="M9.91030469,0.0447890625 C8.11885156,0.527679687 6.46975,1.35690625 5.03901563,2.4565625 L9.91030469,7.32785156 L9.91030469,0.0447890625 Z" id="Path"></path>
                <path d="M17.2146953,27.0802109 C19.0061484,26.5973203 20.65525,25.7680937 22.0859844,24.6684375 L17.2146953,19.7971484 L17.2146953,27.0802109 Z" id="Path"></path>
                <path d="M19.7971484,17.21475 L24.6684375,22.0860937 C25.7680937,20.6553594 26.597375,19.0062031 27.0802109,17.21475 L19.7971484,17.21475 Z" id="Path"></path>
            </g>
            <g id="Group" fill="#D80027">
                <path d="M27.8814922,12.1739297 L15.8261797,12.1739297 L15.826125,12.1739297 L15.826125,0.118507812 C15.2283359,0.0406875 14.6188984,0 14,0 C13.3809922,0 12.7716641,0.0406875 12.1739297,0.118507812 L12.1739297,12.1738203 L12.1739297,12.173875 L0.118507812,12.173875 C0.0406875,12.7716641 0,13.3811016 0,14 C0,14.6190078 0.0406875,15.2283359 0.118507812,15.8260703 L12.1738203,15.8260703 L12.173875,15.8260703 L12.173875,27.8814922 C12.7716641,27.9593125 13.3809922,28 14,28 C14.6188984,28 15.2283359,27.9593672 15.8260703,27.8814922 L15.8260703,15.8261797 L15.8260703,15.826125 L27.8814922,15.826125 C27.9593125,15.2283359 28,14.6190078 28,14 C28,13.3811016 27.9593125,12.7716641 27.8814922,12.1739297 Z" id="Path"></path>
                <path d="M17.6521953,17.6521953 L23.8994766,23.8995313 C24.1868047,23.6123125 24.4608984,23.3120234 24.7224141,23.0007422 L19.3738672,17.6521953 L17.6521953,17.6521953 Z" id="Path"></path>
                <path d="M10.3478047,17.65225 L10.3476953,17.65225 L4.10046875,23.8994766 C4.3876875,24.1868047 4.68797656,24.4608984 4.99925781,24.7224141 L10.3478047,19.3737578 L10.3478047,17.65225 Z" id="Path"></path>
                <path d="M10.3478047,10.3479141 L10.3478047,10.3478047 L4.10052344,4.10046875 C3.81319531,4.3876875 3.53910156,4.68797656 3.27758594,4.99925781 L8.6261875,10.3478594 L10.3478047,10.3479141 Z" id="Path"></path>
                <path d="M17.6521953,10.3479141 L23.8995313,4.10052344 C23.6123125,3.81319531 23.3120234,3.53910156 23.0007422,3.27764063 L17.6521953,8.62624219 L17.6521953,10.3479141 Z" id="Path"></path>
            </g>
        </g>
    </g>
</svg>