<svg version="1.1"  width="80px" height="50px" viewBox="0.0 0.0 960.0 720.0" fill="none" stroke="none" stroke-linecap="square" stroke-miterlimit="10" xmlns:xlink="http://www.w3.org/1999/xlink" xmlns="http://www.w3.org/2000/svg"><clipPath id="p.0"><path d="m0 0l960.0 0l0 720.0l-960.0 0l0 -720.0z" clip-rule="nonzero"/></clipPath><g clip-path="url(#p.0)"><path fill="#000000" fill-opacity="0.0" d="m0 0l960.0 0l0 720.0l-960.0 0z" fill-rule="evenodd"/><path fill="#000000" fill-opacity="0.0" d="m0 229.10236l1151.0867 0l0 277.95276l-1151.0867 0z" fill-rule="evenodd"/><path fill="#ffffff" d="m58.8125 298.8086l40.921875 -5.515625l-15.234375 71.5625q2.765625 -0.234375 10.484375 -7.484375q7.734375 -7.25 12.28125 -18.34375q4.5625 -11.09375 4.5625 -21.734375q0 -11.21875 -5.453125 -17.890625q-5.453125 -6.6875 -16.5625 -6.6875q-24.28125 0 -37.546875 12.40625q-13.265625 12.390625 -13.265625 35.0q0 6.875 1.484375 9.96875q1.5 3.09375 1.5 8.96875q-17.578125 0 -24.640625 -5.984375q-7.0625 -5.984375 -7.0625 -19.140625q0 -15.3125 12.046875 -29.203125q12.0625 -13.90625 30.4375 -22.296875q18.375 -8.40625 36.828125 -8.40625q17.921875 0 30.28125 6.3125q12.375 6.296875 18.4375 16.875q6.0625 10.578125 6.0625 23.28125q0 15.046875 -8.15625 29.296875q-8.140625 14.234375 -23.25 23.28125q-15.09375 9.03125 -34.671875 9.03125l0 -3.109375l-10.5 63.90625l-39.796875 0l30.8125 -144.09375z" fill-rule="nonzero"/><path fill="#ffffff" d="m199.17451 350.38672l0 37.9375l-64.1875 0l0 -37.9375l64.1875 0z" fill-rule="nonzero"/><path fill="#ffffff" d="m239.48549 444.82422q-13.4375 0 -19.84375 -6.1875q-6.390625 -6.1875 -6.390625 -19.625l0 -78.296875l-13.875 0l0 -11.09375q1.71875 -0.640625 6.1875 -2.234375q4.484375 -1.59375 6.828125 -2.671875q3.625 -2.765625 6.1875 -9.59375q1.921875 -4.484375 7.046875 -22.1875l17.0625 0l0.84375 31.359375l32.64061 0l0 16.421875l-32.42186 0l0 59.953125q0 11.9375 0.640625 16.84375q0.640625 4.90625 2.765625 6.296875q2.140625 1.390625 7.46875 1.390625q5.3437347 0 11.093735 -1.171875q5.765625 -1.171875 9.609375 -2.890625l4.046875 11.953125q-5.96875 4.484375 -17.5 8.109375q-11.51561 3.625 -22.39061 3.625zm51.194138 -14.515625l14.078125 -1.703125l0 -84.046875l-13.640625 -3.84375l0 -14.71875l33.0625 -4.484375l0.640625 0l5.328125 4.28125l0 4.6875l-0.640625 17.28125l0.640625 0q1.5 -4.265625 7.046875 -10.5625q5.546875 -6.296875 13.96875 -11.09375q8.421875 -4.796875 18.234375 -4.796875q4.703125 0 8.109375 1.28125l0 32.0q-6.390625 -4.484375 -15.578125 -4.484375q-15.5625 0 -27.078125 8.3125l0 69.984375l24.734375 1.90625l0 12.59375l-68.90625 0l0 -12.59375zm98.13379 -20.6875q0 -19.40625 19.515625 -29.21875q19.53125 -9.8125 50.453125 -10.03125l0 -4.90625q0 -8.75 -1.8125 -13.65625q-1.8125 -4.90625 -6.609375 -7.359375q-4.796875 -2.453125 -13.96875 -2.453125q-10.453125 0 -18.78125 2.671875q-8.3125 2.65625 -17.28125 6.9375l-6.609375 -13.65625q3.203125 -2.78125 10.765625 -6.609375q7.578125 -3.84375 18.03125 -6.71875q10.453125 -2.890625 21.546875 -2.890625q16.4375 0 25.703125 4.265625q9.28125 4.265625 13.328125 13.65625q4.0625 9.390625 4.0625 25.171875l0 65.28125l11.515625 0l0 11.9375q-4.265625 1.078125 -12.15625 2.140625q-7.890625 1.0625 -13.859375 1.0625q-7.25 0 -9.703125 -2.140625q-2.453125 -2.125 -2.453125 -8.734375l0 -5.765625q-5.765625 6.40625 -14.9375 11.53125q-9.171875 5.109375 -20.6875 5.109375q-9.8125 0 -18.03125 -4.15625q-8.21875 -4.15625 -13.125 -12.15625q-4.90625 -8.0 -4.90625 -19.3125zm49.703125 17.921875q4.484375 0 10.234375 -2.65625q5.765625 -2.671875 10.03125 -6.515625l0 -34.984375q-19.1875 0 -28.6875 6.515625q-9.5 6.5 -9.5 16.734375q0 10.234375 4.796875 15.578125q4.8125 5.328125 13.125 5.328125zm70.61871 -43.3125q0 -18.34375 7.359375 -32.625q7.359375 -14.296875 21.109375 -22.296875q13.765625 -8.0 32.109375 -8.0q8.53125 0 14.71875 1.28125q6.1875 1.28125 13.875 3.40625l6.1875 1.703125l-1.28125 36.484375l-18.5625 0l-5.328125 -23.46875q-1.28125 -5.546875 -12.59375 -5.546875q-11.9375 0 -18.671875 10.453125q-6.71875 10.453125 -6.921875 32.640625q0 23.46875 8.09375 35.953125q8.109375 12.46875 21.5625 12.46875q16.203125 0 29.859375 -8.734375l4.90625 11.09375q-5.546875 5.96875 -16.96875 11.09375q-11.40625 5.109375 -24.625 5.109375q-27.3125 0 -41.078125 -16.84375q-13.75 -16.859375 -13.75 -44.171875zm123.29541 -97.265625l-15.359375 -2.78125l0 -11.515625l39.265625 -4.6875l0.421875 0l5.75 4.046875l0 101.328125l-0.625 11.3125l43.515625 -45.65625l-15.796875 -2.34375l0 -12.15625l55.6875 0l0 12.15625l-17.28125 2.765625l-26.234375 25.171875l37.328125 63.796875l11.734375 1.703125l0 12.796875l-56.328125 0l0 -12.796875l10.890625 -1.921875l-24.328125 -45.015625l-19.1875 19.421875l0.421875 10.875l0 14.71875l13.4375 1.921875l0 12.796875l-55.671875 0l0 -12.796875l12.359375 -1.921875l0 -141.21875zm178.13654 158.28125q-28.15625 0 -41.921875 -16.53125q-13.75 -16.53125 -13.75 -45.125q0 -19.1875 7.140625 -33.265625q7.140625 -14.078125 20.15625 -21.546875q13.015625 -7.46875 30.078125 -7.46875q21.328125 0 32.84375 11.203125q11.53125 11.1875 11.953125 31.890625q0 14.078125 -1.703125 20.90625l-69.328125 0q0.84375 19.40625 9.15625 30.1875q8.328125 10.765625 23.6875 10.765625q8.328125 0 17.171875 -2.765625q8.859375 -2.78125 13.984375 -6.625l5.328125 11.734375q-5.765625 6.1875 -18.671875 11.421875q-12.90625 5.21875 -26.125 5.21875zm16.640625 -72.734375q0.421875 -5.984375 0.421875 -9.1875q0 -28.359375 -18.984375 -28.359375q-10.453125 0 -16.21875 8.328125q-5.75 8.3125 -6.390625 29.21875l41.171875 0zm46.924255 57.796875l14.078125 -1.703125l0 -84.046875l-13.640625 -3.84375l0 -14.71875l33.0625 -4.484375l0.640625 0l5.328125 4.28125l0 4.6875l-0.640625 17.28125l0.640625 0q1.5 -4.265625 7.046875 -10.5625q5.546875 -6.296875 13.96875 -11.09375q8.421875 -4.796875 18.234375 -4.796875q4.703125 0 8.109375 1.28125l0 32.0q-6.390625 -4.484375 -15.578125 -4.484375q-15.5625 0 -27.078125 8.3125l0 69.984375l24.734375 1.90625l0 12.59375l-68.90625 0l0 -12.59375z" fill-rule="nonzero"/></g></svg>
