<?xml version="1.0" encoding="UTF-8"?>
<svg width="91px" height="19px" viewBox="0 0 91 19" version="1.1" xmlns="http://www.w3.org/2000/svg" xmlns:xlink="http://www.w3.org/1999/xlink">
    <title>logo white</title>
    <g id="logo-white" stroke="none" stroke-width="1" fill="none" fill-rule="evenodd">
        <path d="M4.12,18.72 L4.12,14.16 L6.3,14.16 L8.82,18.72 L13.32,18.72 L10.32,13.48 C11.86,12.72 12.92,11.36 12.92,9.3 C12.92,6.1 10.74,4.44 7.14,4.44 L0,4.44 L0,18.72 L4.12,18.72 Z M6.54,10.96 L4.12,10.96 L4.12,7.64 L6.54,7.64 C8.22,7.64 8.8,8.2 8.8,9.3 C8.8,10.4 8.22,10.96 6.54,10.96 Z M19.13,18.96 C22.07,18.96 23.99,17.46 24.41,15.2 L20.67,15.2 C20.47,15.82 19.93,16.14 19.13,16.14 C18.07,16.14 17.53,15.5 17.37,14.4 L24.45,14.4 L24.45,13.44 C24.45,10.6 22.65,8.16 19.13,8.16 C15.97,8.16 13.47,10.14 13.47,13.54 C13.47,16.96 15.97,18.96 19.13,18.96 Z M20.71,12.52 L17.41,12.52 C17.59,11.54 18.13,10.92 19.13,10.92 C20.15,10.92 20.71,11.7 20.71,12.52 Z M28.68,18.96 C30.2,18.96 31.3,18.42 31.88,17.3 C31.88,17.8 31.9,18.16 31.94,18.72 L35.78,18.72 C35.66,17.62 35.62,16.72 35.62,15.44 L35.62,12.7 C35.62,9.7 33.94,8.16 30.62,8.16 C27.5,8.16 25.64,9.64 25.42,12.06 L29.3,12.06 C29.34,11.46 29.74,11 30.48,11 C31.26,11 31.64,11.46 31.64,12.12 L31.64,12.5 L28.94,12.74 C26.84,12.94 25,13.66 25,15.9 C25,17.72 26.32,18.96 28.68,18.96 Z M30,16.5 C29.38,16.5 28.98,16.16 28.98,15.58 C28.98,14.98 29.46,14.76 30.22,14.68 L31.64,14.5 L31.64,14.88 C31.64,15.92 30.9,16.5 30,16.5 Z M42.21,18.96 C45.23,18.96 47.03,17.2 47.29,14.74 L43.43,14.74 C43.39,15.38 42.99,16.06 42.17,16.06 C41.15,16.06 40.61,15.14 40.61,13.56 C40.61,12 41.15,11.04 42.17,11.04 C42.99,11.04 43.39,11.72 43.43,12.36 L47.29,12.36 C47.03,9.9 45.23,8.16 42.21,8.16 C38.93,8.16 36.51,10.18 36.51,13.56 C36.51,16.96 38.93,18.96 42.21,18.96 Z M52.26,18.88 C53.2,18.88 53.82,18.78 54.72,18.56 L54.72,15.58 C54.26,15.66 53.94,15.68 53.56,15.68 C52.82,15.68 52.48,15.46 52.48,14.68 L52.48,11.22 L54.54,11.22 L54.54,8.4 L52.5,8.4 L52.5,5.88 L48.48,5.88 L48.48,8.4 L47.18,8.4 L47.18,11.22 L48.48,11.22 L48.48,15.62 C48.48,17.94 49.66,18.88 52.26,18.88 Z M62.97,18.96 C65.79,18.96 67.43,16.64 67.43,13.56 C67.43,10.48 65.79,8.16 62.97,8.16 C61.65,8.16 60.49,8.8 59.97,9.82 L59.97,4 L55.89,4 L55.89,18.72 L59.93,18.72 L59.93,17.3 C60.45,18.32 61.65,18.96 62.97,18.96 Z M61.61,16.1 C60.55,16.1 59.91,15.28 59.91,13.82 L59.91,13.3 C59.91,11.84 60.55,11.02 61.61,11.02 C62.75,11.02 63.35,11.94 63.35,13.56 C63.35,15.2 62.75,16.1 61.61,16.1 Z M73.64,18.96 C77.04,18.96 79.38,16.94 79.38,13.56 C79.38,10.18 77.04,8.16 73.64,8.16 C70.24,8.16 67.9,10.18 67.9,13.56 C67.9,16.94 70.24,18.96 73.64,18.96 Z M73.64,16.1 C72.52,16.1 72,15.18 72,13.56 C72,11.94 72.52,11.02 73.64,11.02 C74.76,11.02 75.28,11.94 75.28,13.56 C75.28,15.18 74.76,16.1 73.64,16.1 Z M83.03,18.72 L84.91,16.2 L86.69,18.72 L91.27,18.72 L87.27,13.3 L90.99,8.4 L86.65,8.4 L85.05,10.58 L83.55,8.4 L78.97,8.4 L82.69,13.46 L78.69,18.72 L83.03,18.72 Z" id="Reactbox" fill="#FFFFFF"></path>
    </g>
</svg>